{"accessors" : [{"bufferView" : 0, "byteOffset" : 0, "componentType" : 5123, "count" : 3504, "type" : "SCALAR", "max" : [3488], "min" : [0]}, {"bufferView" : 1, "byteOffset" : 0, "componentType" : 5126, "count" : 3489, "type" : "VEC3", "max" : [1.5599000453948975, 84.19819641113281, 0.6169000267982483], "min" : [-3.007699966430664, 77.02839660644531, 0.13379999995231628], "name" : "POSITION"}, {"bufferView" : 1, "byteOffset" : 12, "componentType" : 5126, "count" : 3489, "type" : "VEC2", "max" : [1.0006999969482422, 0.05239999294281006], "min" : [0.0006000000284984708, 0.026300013065338135], "name" : "TEXCOORD_0"}, {"bufferView" : 1, "byteOffset" : 20, "componentType" : 5126, "count" : 3489, "type" : "VEC3", "max" : [0.9837014079093933, 0.9828192591667175, 0.983689546585083], "min" : [-0.9837020635604858, -0.9988614320755005, -0.9837072491645813], "name" : "NORMAL"}, {"bufferView" : 0, "byteOffset" : 7008, "componentType" : 5123, "count" : 5901, "type" : "SCALAR", "max" : [5842], "min" : [0]}, {"bufferView" : 2, "byteOffset" : 0, "componentType" : 5126, "count" : 5843, "type" : "VEC3", "max" : [20.25779914855957, 77.50569915771484, 0.7477999925613403], "min" : [-20.087099075317383, 60.03269958496094, -0.15449999272823334], "name" : "POSITION"}, {"bufferView" : 2, "byteOffset" : 12, "componentType" : 5126, "count" : 5843, "type" : "VEC2", "max" : [0.9873999953269958, 0.9253000020980835], "min" : [0.009399999864399433, 0.014400005340576172], "name" : "TEXCOORD_0"}, {"bufferView" : 2, "byteOffset" : 20, "componentType" : 5126, "count" : 5843, "type" : "VEC3", "max" : [1.0000029802322388, 0.9934853911399841, 1.0000029802322388], "min" : [-1.0000029802322388, -0.9354341626167297, -1.0000029802322388], "name" : "NORMAL"}, {"bufferView" : 0, "byteOffset" : 18812, "componentType" : 5123, "count" : 438, "type" : "SCALAR", "max" : [437], "min" : [0]}, {"bufferView" : 3, "byteOffset" : 0, "componentType" : 5126, "count" : 438, "type" : "VEC3", "max" : [6.959000110626221, 75.51740264892578, -0.043800000101327896], "min" : [-0.33329999446868896, 69.66470336914062, -4.557700157165527], "name" : "POSITION"}, {"bufferView" : 3, "byteOffset" : 12, "componentType" : 5126, "count" : 438, "type" : "VEC2", "max" : [0.8684999942779541, 0.983299970626831], "min" : [0.4742000102996826, 0.017099976539611816], "name" : "TEXCOORD_0"}, {"bufferView" : 3, "byteOffset" : 20, "componentType" : 5126, "count" : 438, "type" : "VEC3", "max" : [0.8511321544647217, 0.9941332936286926, 0.9927005767822266], "min" : [-0.721609354019165, -0.9685298800468445, -0.9966220259666443], "name" : "NORMAL"}, {"bufferView" : 0, "byteOffset" : 19688, "componentType" : 5123, "count" : 10251, "type" : "SCALAR", "max" : [10248], "min" : [0]}, {"bufferView" : 4, "byteOffset" : 0, "componentType" : 5126, "count" : 10249, "type" : "VEC3", "max" : [25.63290023803711, 66.28910064697266, 0.3125], "min" : [-25.40850067138672, 6.438700199127197, -3.2590999603271484], "name" : "POSITION"}, {"bufferView" : 4, "byteOffset" : 12, "componentType" : 5126, "count" : 10249, "type" : "VEC2", "max" : [0.9578999876976013, 0.8889999985694885], "min" : [-0.011800000444054604, 0.14249998331069946], "name" : "TEXCOORD_0"}, {"bufferView" : 4, "byteOffset" : 20, "componentType" : 5126, "count" : 10249, "type" : "VEC3", "max" : [0.9996694922447205, 0.5311020612716675, 0.9995039701461792], "min" : [-0.9990226626396179, -0.6722846031188965, -1.0000039339065552], "name" : "NORMAL"}, {"bufferView" : 0, "byteOffset" : 40192, "componentType" : 5123, "count" : 756, "type" : "SCALAR", "max" : [755], "min" : [0]}, {"bufferView" : 5, "byteOffset" : 0, "componentType" : 5126, "count" : 756, "type" : "VEC3", "max" : [2.8320000171661377, 38.6156005859375, 6.797100067138672], "min" : [1.0160000324249268, 36.359100341796875, 6.338799953460693], "name" : "POSITION"}, {"bufferView" : 5, "byteOffset" : 12, "componentType" : 5126, "count" : 756, "type" : "VEC2", "max" : [0.9559000134468079, 0.9574000239372253], "min" : [0.02199999988079071, 0.021399974822998047], "name" : "TEXCOORD_0"}, {"bufferView" : 5, "byteOffset" : 20, "componentType" : 5126, "count" : 756, "type" : "VEC3", "max" : [0.989370584487915, 0.9977453947067261, 0.989957869052887], "min" : [-0.989370584487915, -0.9977453947067261, -0.989957869052887], "name" : "NORMAL"}, {"bufferView" : 0, "byteOffset" : 41704, "componentType" : 5123, "count" : 762, "type" : "SCALAR", "max" : [761], "min" : [0]}, {"bufferView" : 6, "byteOffset" : 0, "componentType" : 5126, "count" : 762, "type" : "VEC3", "max" : [1.9234000444412231, 27.333499908447266, 5.990300178527832], "min" : [0.11429999768733978, 25.07710075378418, 5.747600078582764], "name" : "POSITION"}, {"bufferView" : 6, "byteOffset" : 12, "componentType" : 5126, "count" : 762, "type" : "VEC2", "max" : [0.9768999814987183, 0.9884999990463257], "min" : [0.011099999770522118, 0.008000016212463379], "name" : "TEXCOORD_0"}, {"bufferView" : 6, "byteOffset" : 20, "componentType" : 5126, "count" : 762, "type" : "VEC3", "max" : [0.9991905689239502, 0.9977495074272156, 0.9997859597206116], "min" : [-0.9991905689239502, -0.9977495074272156, -0.9997859001159668], "name" : "NORMAL"}, {"bufferView" : 0, "byteOffset" : 43228, "componentType" : 5123, "count" : 3024, "type" : "SCALAR", "max" : [2979], "min" : [0]}, {"bufferView" : 7, "byteOffset" : 0, "componentType" : 5126, "count" : 2980, "type" : "VEC3", "max" : [-23.503000259399414, 12.673399925231934, -1.8305000066757202], "min" : [-25.051799774169922, 6.9217000007629395, -3.314500093460083], "name" : "POSITION"}, {"bufferView" : 7, "byteOffset" : 12, "componentType" : 5126, "count" : 2980, "type" : "VEC2", "max" : [0.9563000202178955, 0.9908000230789185], "min" : [0.02590000070631504, 0.010299980640411377], "name" : "TEXCOORD_0"}, {"bufferView" : 7, "byteOffset" : 20, "componentType" : 5126, "count" : 2980, "type" : "VEC3", "max" : [0.7126808166503906, 0.9985859394073486, 0.7069056630134583], "min" : [-0.7126808166503906, -0.9985859394073486, -0.7069098353385925], "name" : "NORMAL"}, {"bufferView" : 0, "byteOffset" : 49276, "componentType" : 5123, "count" : 3024, "type" : "SCALAR", "max" : [2984], "min" : [0]}, {"bufferView" : 8, "byteOffset" : 0, "componentType" : 5126, "count" : 2985, "type" : "VEC3", "max" : [25.295799255371094, 13.33530044555664, -1.863800048828125], "min" : [23.96769905090332, 7.583600044250488, -3.1189000606536865], "name" : "POSITION"}, {"bufferView" : 8, "byteOffset" : 12, "componentType" : 5126, "count" : 2985, "type" : "VEC2", "max" : [1.0879000425338745, 0.9993000030517578], "min" : [0.13899999856948853, 0.0008999999845400453], "name" : "TEXCOORD_0"}, {"bufferView" : 8, "byteOffset" : 20, "componentType" : 5126, "count" : 2985, "type" : "VEC3", "max" : [0.7103996872901917, 0.9985858201980591, 0.7088174819946289], "min" : [-0.7103996872901917, -0.9985858201980591, -0.7088174819946289], "name" : "NORMAL"}, {"bufferView" : 0, "byteOffset" : 55324, "componentType" : 5123, "count" : 21030, "type" : "SCALAR", "max" : [21027], "min" : [0]}, {"bufferView" : 9, "byteOffset" : 0, "componentType" : 5126, "count" : 21028, "type" : "VEC3", "max" : [25.62420082092285, 74.28019714355469, 6.482399940490723], "min" : [-25.40850067138672, 0.21580000221729279, -0.5236999988555908], "name" : "POSITION"}, {"bufferView" : 9, "byteOffset" : 12, "componentType" : 5126, "count" : 21028, "type" : "VEC2", "max" : [0.9854000210762024, 0.9843000173568726], "min" : [0.013899999670684338, 0.016799986362457275], "name" : "TEXCOORD_0"}, {"bufferView" : 9, "byteOffset" : 20, "componentType" : 5126, "count" : 21028, "type" : "VEC3", "max" : [0.999353289604187, 0.9991885423660278, 1.0000009536743164], "min" : [-0.9956270456314087, -0.9409487843513489, -0.9999849200248718], "name" : "NORMAL"}, {"bufferView" : 0, "byteOffset" : 97384, "componentType" : 5123, "count" : 9000, "type" : "SCALAR", "max" : [8997], "min" : [0]}, {"bufferView" : 10, "byteOffset" : 0, "componentType" : 5126, "count" : 8998, "type" : "VEC3", "max" : [21.638700485229492, 75.3405990600586, 0.3889000117778778], "min" : [-20.827800750732422, 0.739799976348877, -5.390200138092041], "name" : "POSITION"}, {"bufferView" : 10, "byteOffset" : 12, "componentType" : 5126, "count" : 8998, "type" : "VEC2", "max" : [0.8939999938011169, 0.9954000115394592], "min" : [0.1151999980211258, 0.0037999749183654785], "name" : "TEXCOORD_0"}, {"bufferView" : 10, "byteOffset" : 20, "componentType" : 5126, "count" : 8998, "type" : "VEC3", "max" : [0.9988016486167908, 0.9155125021934509, 0.9999786019325256], "min" : [-0.9987472891807556, -0.9628716111183167, -0.9986568093299866], "name" : "NORMAL"}, {"bufferView" : 0, "byteOffset" : 115384, "componentType" : 5123, "count" : 6234, "type" : "SCALAR", "max" : [6232], "min" : [0]}, {"bufferView" : 11, "byteOffset" : 0, "componentType" : 5126, "count" : 6233, "type" : "VEC3", "max" : [9.221599578857422, 75.51740264892578, 0.4821000099182129], "min" : [-9.057999610900879, 69.54530334472656, -4.553400039672852], "name" : "POSITION"}, {"bufferView" : 11, "byteOffset" : 12, "componentType" : 5126, "count" : 6233, "type" : "VEC2", "max" : [0.628000020980835, 0.5400999784469604], "min" : [0.3720000088214874, 0.4585000276565552], "name" : "TEXCOORD_0"}, {"bufferView" : 11, "byteOffset" : 20, "componentType" : 5126, "count" : 6233, "type" : "VEC3", "max" : [0.9955586194992065, 0.9987859129905701, 0.9959583282470703], "min" : [-0.981224000453949, -0.9998792409896851, -0.9997844099998474], "name" : "NORMAL"}], "asset" : {"generator" : "Aspose.3D 23.11.1", "version" : "2.0"}, "buffers" : [{"uri" : "data:application/octet-stream;base64,", "byteLength" : 2173468}], "bufferViews" : [{"buffer" : 0, "byteOffset" : 0, "byteLength" : 127852, "target" : 34963}, {"buffer" : 0, "byteOffset" : 127856, "byteLength" : 112128, "byteStride" : 32, "target" : 34962}, {"buffer" : 0, "byteOffset" : 239988, "byteLength" : 188832, "byteStride" : 32, "target" : 34962}, {"buffer" : 0, "byteOffset" : 428824, "byteLength" : 14016, "byteStride" : 32, "target" : 34962}, {"buffer" : 0, "byteOffset" : 442844, "byteLength" : 328032, "byteStride" : 32, "target" : 34962}, {"buffer" : 0, "byteOffset" : 770880, "byteLength" : 24192, "byteStride" : 32, "target" : 34962}, {"buffer" : 0, "byteOffset" : 795076, "byteLength" : 24384, "byteStride" : 32, "target" : 34962}, {"buffer" : 0, "byteOffset" : 819464, "byteLength" : 96768, "byteStride" : 32, "target" : 34962}, {"buffer" : 0, "byteOffset" : 916236, "byteLength" : 96768, "byteStride" : 32, "target" : 34962}, {"buffer" : 0, "byteOffset" : 1013008, "byteLength" : 672960, "byteStride" : 32, "target" : 34962}, {"buffer" : 0, "byteOffset" : 1685972, "byteLength" : 288000, "byteStride" : 32, "target" : 34962}, {"buffer" : 0, "byteOffset" : 1973976, "byteLength" : 199488, "byteStride" : 32, "target" : 34962}], "meshes" : [{"primitives" : [{"attributes" : {"POSITION" : 1, "TEXCOORD_0" : 2, "NORMAL" : 3}, "indices" : 0, "mode" : 4}], "name" : ""}, {"primitives" : [{"attributes" : {"POSITION" : 5, "TEXCOORD_0" : 6, "NORMAL" : 7}, "indices" : 4, "mode" : 4}], "name" : ""}, {"primitives" : [{"attributes" : {"POSITION" : 9, "TEXCOORD_0" : 10, "NORMAL" : 11}, "indices" : 8, "mode" : 4}], "name" : ""}, {"primitives" : [{"attributes" : {"POSITION" : 13, "TEXCOORD_0" : 14, "NORMAL" : 15}, "indices" : 12, "mode" : 4}], "name" : ""}, {"primitives" : [{"attributes" : {"POSITION" : 17, "TEXCOORD_0" : 18, "NORMAL" : 19}, "indices" : 16, "mode" : 4}], "name" : ""}, {"primitives" : [{"attributes" : {"POSITION" : 21, "TEXCOORD_0" : 22, "NORMAL" : 23}, "indices" : 20, "mode" : 4}], "name" : ""}, {"primitives" : [{"attributes" : {"POSITION" : 25, "TEXCOORD_0" : 26, "NORMAL" : 27}, "indices" : 24, "mode" : 4}], "name" : ""}, {"primitives" : [{"attributes" : {"POSITION" : 29, "TEXCOORD_0" : 30, "NORMAL" : 31}, "indices" : 28, "mode" : 4}], "name" : ""}, {"primitives" : [{"attributes" : {"POSITION" : 33, "TEXCOORD_0" : 34, "NORMAL" : 35}, "indices" : 32, "mode" : 4}], "name" : ""}, {"primitives" : [{"attributes" : {"POSITION" : 37, "TEXCOORD_0" : 38, "NORMAL" : 39}, "indices" : 36, "mode" : 4}], "name" : ""}, {"primitives" : [{"attributes" : {"POSITION" : 41, "TEXCOORD_0" : 42, "NORMAL" : 43}, "indices" : 40, "mode" : 4}], "name" : ""}], "nodes" : [{"mesh" : 0, "name" : "HOOK002"}, {"mesh" : 1, "name" : "HANGER002"}, {"mesh" : 2, "name" : "BACJAC004"}, {"mesh" : 3, "name" : "REARARMS002"}, {"mesh" : 4, "name" : "BUTTON006"}, {"mesh" : 5, "name" : "BUTTON005"}, {"mesh" : 6, "name" : "BBUTTNLT002"}, {"mesh" : 7, "name" : "BBUTTNRH002"}, {"mesh" : 8, "name" : "FRONTJAC002"}, {"mesh" : 9, "name" : "BACKJAC002"}, {"mesh" : 10, "name" : "Mesh002"}], "scene" : 0, "scenes" : [{"nodes" : [0, 1, 2, 3, 4, 5, 6, 7, 8, 9, 10]}]}