{"accessors" : [{"bufferView" : 0, "byteOffset" : 0, "componentType" : 5123, "count" : 18720, "type" : "SCALAR", "max" : [15658], "min" : [0]}, {"bufferView" : 1, "byteOffset" : 0, "componentType" : 5126, "count" : 15659, "type" : "VEC3", "max" : [-209.9499053955078, -719.1082153320312, 1333.438232421875], "min" : [-313.776611328125, -822.934814453125, 1124.5318603515625], "name" : "POSITION"}, {"bufferView" : 1, "byteOffset" : 12, "componentType" : 5126, "count" : 15659, "type" : "VEC3", "max" : [1.0000044107437134, 1.0000044107437134, 1.0000044107437134], "min" : [-1.0000044107437134, -1.0000044107437134, -1.0000044107437134], "name" : "NORMAL"}, {"bufferView" : 0, "byteOffset" : 37440, "componentType" : 5123, "count" : 61920, "type" : "SCALAR", "max" : [51837], "min" : [0]}, {"bufferView" : 2, "byteOffset" : 0, "componentType" : 5126, "count" : 51838, "type" : "VEC3", "max" : [-108.58270263671875, -617.7410278320312, 1537.2830810546875], "min" : [-415.1437072753906, -924.302001953125, 1121.87353515625], "name" : "POSITION"}, {"bufferView" : 2, "byteOffset" : 12, "componentType" : 5126, "count" : 51838, "type" : "VEC3", "max" : [1.0000044107437134, 1.0000044107437134, 1.0000044107437134], "min" : [-1.0000044107437134, -1.0000044107437134, -1.0000044107437134], "name" : "NORMAL"}, {"bufferView" : 0, "byteOffset" : 161280, "componentType" : 5123, "count" : 24660, "type" : "SCALAR", "max" : [21763], "min" : [0]}, {"bufferView" : 3, "byteOffset" : 0, "componentType" : 5126, "count" : 21764, "type" : "VEC3", "max" : [-117.302001953125, -636.5115966796875, 1128.5589599609375], "min" : [-350.65008544921875, -905.531494140625, 762.0311889648438], "name" : "POSITION"}, {"bufferView" : 3, "byteOffset" : 12, "componentType" : 5126, "count" : 21764, "type" : "VEC2", "max" : [2.998500108718872, 0.9984999895095825], "min" : [0.001500000013038516, -1.998500108718872], "name" : "TEXCOORD_0"}, {"bufferView" : 3, "byteOffset" : 20, "componentType" : 5126, "count" : 21764, "type" : "VEC3", "max" : [1.0000044107437134, 1.0000044107437134, 1.0000044107437134], "min" : [-1.0000044107437134, -1.0000044107437134, -1.0000044107437134], "name" : "NORMAL"}], "asset" : {"generator" : "Aspose.3D 23.11.1", "version" : "2.0"}, "buffers" : [{"uri" : "data:application/octet-stream;base64,", "byteLength" : 2935096}], "bufferViews" : [{"buffer" : 0, "byteOffset" : 0, "byteLength" : 210600, "target" : 34963}, {"buffer" : 0, "byteOffset" : 210604, "byteLength" : 449280, "byteStride" : 24, "target" : 34962}, {"buffer" : 0, "byteOffset" : 659888, "byteLength" : 1486080, "byteStride" : 24, "target" : 34962}, {"buffer" : 0, "byteOffset" : 2145972, "byteLength" : 789120, "byteStride" : 32, "target" : 34962}], "meshes" : [{"primitives" : [{"attributes" : {"POSITION" : 1, "NORMAL" : 2}, "indices" : 0, "mode" : 4}], "name" : ""}, {"primitives" : [{"attributes" : {"POSITION" : 4, "NORMAL" : 5}, "indices" : 3, "mode" : 4}], "name" : ""}, {"primitives" : [{"attributes" : {"POSITION" : 7, "TEXCOORD_0" : 8, "NORMAL" : 9}, "indices" : 6, "mode" : 4}], "name" : ""}], "nodes" : [{"mesh" : 0, "name" : "Line008"}, {"mesh" : 1, "name" : "Line004"}, {"mesh" : 2, "name" : "Line006"}], "scene" : 0, "scenes" : [{"nodes" : [0, 1, 2]}]}